<svg xmlns="http://www.w3.org/2000/svg" version="1.1" xmlns:xlink="http://www.w3.org/1999/xlink" xmlns:svgjs="http://svgjs.dev/svgjs" width="1500" height="1500" viewBox="0 0 1500 1500"><rect width="1500" height="1500" fill="#000000"></rect><g transform="matrix(0.6666666666666666,0,0,0.6666666666666666,249.39393939393938,670.1366716597788)"><svg viewBox="0 0 396 63" data-background-color="#fafafa" preserveAspectRatio="xMidYMid meet" height="238" width="1500" xmlns="http://www.w3.org/2000/svg" xmlns:xlink="http://www.w3.org/1999/xlink"><g id="tight-bounds" transform="matrix(1,0,0,1,0.2400000000000091,0.21043919391135546)"><svg viewBox="0 0 395.52 62.57912161217731" height="62.57912161217731" width="395.52"><g><svg viewBox="0 0 469.77386744961217 74.32755860981024" height="62.57912161217731" width="395.52"><g transform="matrix(1,0,0,1,0,10.272477347665529)"><svg viewBox="0 0 395.52 53.78260391447918" height="53.78260391447918" width="395.52"><g id="textblocktransform"><svg viewBox="0 0 395.52 53.78260391447918" height="53.78260391447918" width="395.52" id="textblock"><g><svg viewBox="0 0 395.52 34.67072664359861" height="34.67072664359861" width="395.52"><g transform="matrix(1,0,0,1,0,0)"><svg width="395.52" viewBox="5.4 -38.4 558.0100000000001 49.4" height="34.67072664359861" data-palette-color="#130912"><g class="wordmark-text-0" data-fill-palette-color="primary" id="text-0"><path d="M32.55-36L32.55 0 28.65 0.45Q27.6 0.45 26.8-0.8L26.8-0.8 10.35-27.25 11.1 0 5.4 0 5.4-36 9.3-36.45Q10.4-36.45 11.2-35.2L11.2-35.2 27.75-8.8 26.85-36 32.55-36ZM60.45-5.7L60.45-5.7 62.3-2.3Q61.45-1.5 58.7-0.45 55.95 0.6 52.8 0.6L52.8 0.6Q47.2 0.6 43.77-2.8 40.35-6.2 40.35-13L40.35-13Q40.35-16.75 41.55-19.63 42.75-22.5 44.65-24.1L44.65-24.1Q48.55-27.3 52.82-27.3 57.1-27.3 59.62-25.13 62.15-22.95 62.15-19.8L62.15-19.8Q62.15-15.65 58.2-13.03 54.25-10.4 45.55-10.4L45.55-10.4Q45.55-8.1 47.47-5.85 49.4-3.6 53.17-3.6 56.95-3.6 60.45-5.7ZM57.3-19.35L57.3-19.35Q57.3-20.85 56.17-21.98 55.05-23.1 53-23.1L53-23.1Q49.7-23.1 47.57-20.63 45.45-18.15 45.4-14.15L45.4-14.15Q57.3-14.15 57.3-19.35ZM69.45-1.8L69.45-1.8 69.45-37.7 74.85-38.4 74.85-25.7Q78.15-27.3 81.9-27.3L81.9-27.3Q86.4-27.3 89.32-23.8 92.25-20.3 92.25-13.7 92.25-7.1 88.97-3.25 85.7 0.6 79.15 0.6L79.15 0.6Q76.7 0.6 73.87-0.18 71.05-0.95 69.45-1.8ZM86.55-13.73Q86.55-18.7 84.92-20.9 83.3-23.1 80.3-23.1 77.3-23.1 74.85-21.7L74.85-21.7 74.85-4.25Q76.55-3.6 79.25-3.6L79.25-3.6Q83.35-3.6 84.95-6.18 86.55-8.75 86.55-13.73ZM99.64 0L99.64-18.2Q99.64-22.7 98.74-26.3L98.74-26.3 102.94-26.85 104.19-23.6Q107.34-27.3 111.29-27.3L111.29-27.3Q113.94-27.3 115.42-26.05 116.89-24.8 116.89-22.5 116.89-20.2 116.14-18.45L116.14-18.45 111.84-19Q111.84-21.25 111.42-22.18 110.99-23.1 109.67-23.1 108.34-23.1 107.07-22.05 105.79-21 105.04-19.7L105.04-19.7 105.04 0 99.64 0ZM142.39-25.05L142.39-25.05 142.39-6.35Q142.39-4.6 142.79-4.03 143.19-3.45 144.74-3.45L144.74-3.45 144.94-0.3Q143.69 0.15 142.29 0.15L142.29 0.15Q138.39 0.15 137.64-3.4L137.64-3.4Q134.99 0.6 129.81 0.6 124.64 0.6 122.12-3.25 119.59-7.1 119.59-13.18 119.59-19.25 123.04-23.28 126.49-27.3 132.29-27.3L132.29-27.3Q134.64-27.3 137.77-26.58 140.89-25.85 142.39-25.05ZM125.29-12.75Q125.29-7.9 126.77-5.75 128.24-3.6 131.04-3.6 133.84-3.6 135.42-5.58 136.99-7.55 136.99-10.45L136.99-10.45 136.99-22.45Q135.04-23.1 132.54-23.1L132.54-23.1Q128.74-23.1 127.02-20.35 125.29-17.6 125.29-12.75ZM149.34-1.35L149.34-1.35 150.49-5.4Q154.59-3.6 157.54-3.6L157.54-3.6Q162.64-3.6 162.64-7.05L162.64-7.05Q162.64-9.75 157.74-11.55L157.74-11.55Q155.84-12.25 154.89-12.68 153.94-13.1 152.54-14L152.54-14Q149.79-15.8 149.79-19.43 149.79-23.05 152.36-25.13 154.94-27.2 159.34-27.2L159.34-27.2Q163.79-27.2 166.99-25.7L166.99-25.7Q167.59-25.45 167.64-25.45L167.64-25.45 166.59-21.4Q162.94-23 160.09-23L160.09-23Q155.09-23 155.09-19.6L155.09-19.6Q155.09-18.6 155.61-18.07 156.14-17.55 156.44-17.32 156.74-17.1 157.44-16.78 158.14-16.45 158.46-16.32 158.79-16.2 159.69-15.85 160.59-15.5 161.51-15.18 162.44-14.85 163.46-14.3 164.49-13.75 165.64-12.8L165.64-12.8Q167.94-10.9 167.94-7L167.94-7Q167.94-4.35 166.39-2.6L166.39-2.6Q163.64 0.6 157.19 0.6L157.19 0.6Q152.89 0.6 149.34-1.35Z" fill="#ffffff" data-fill-palette-color="primary"></path><path d="M189.64 0L183.69 0 195.54-35.25Q195.94-36.3 197.29-36.3L197.29-36.3Q197.84-36.3 202.64-36L202.64-36 214.59 0 208.74 0 205.49-10.5 192.84-10.5 189.64 0ZM199.09-30.9L194.19-15 204.09-15 199.09-31.2 199.09-30.9ZM220.84-8.15L220.84-37.7 226.24-38.4 226.24-8.25Q226.24-3.6 228.89-3.6L228.89-3.6Q229.54-3.6 231.29-3.95L231.29-3.95 231.94-0.25Q231.89-0.25 231.51-0.1 231.14 0.05 230.64 0.2L230.64 0.2Q229.39 0.6 227.59 0.6L227.59 0.6Q224.14 0.6 222.49-1.73 220.84-4.05 220.84-8.15L220.84-8.15Z" fill="#ffffff" data-fill-palette-color="accent"></path><path d="M256.84-9.95L256.84 0 251.44 0 251.44-37.7 256.84-38.4 256.84-15.6 268.29-27 274.79-26.4 263.44-15.75 269.24-7.55Q271.99-3.7 274.94-3.6L274.94-3.6 274.94 0.25Q274.54 0.35 273.29 0.35L273.29 0.35Q268.24 0.35 264.94-4.5L264.94-4.5 259.59-12.5 256.84-9.95ZM286.09-20.95L286.09 0 280.69 0 280.69-37.7 286.09-38.4 286.09-24.95Q290.04-27.3 293.84-27.3L293.84-27.3Q302.94-27.3 302.94-17.5L302.94-17.5 302.94 0 297.53 0 297.53-16.5Q297.53-23.1 292.29-23.1L292.29-23.1Q290.29-23.1 288.49-22.35 286.69-21.6 286.09-20.95L286.09-20.95ZM332.13-25.05L332.13-25.05 332.13-6.35Q332.13-4.6 332.53-4.03 332.93-3.45 334.48-3.45L334.48-3.45 334.68-0.3Q333.43 0.15 332.03 0.15L332.03 0.15Q328.13 0.15 327.38-3.4L327.38-3.4Q324.73 0.6 319.56 0.6 314.38 0.6 311.86-3.25 309.33-7.1 309.33-13.18 309.33-19.25 312.78-23.28 316.23-27.3 322.03-27.3L322.03-27.3Q324.38-27.3 327.51-26.58 330.63-25.85 332.13-25.05ZM315.03-12.75Q315.03-7.9 316.51-5.75 317.98-3.6 320.78-3.6 323.58-3.6 325.16-5.58 326.73-7.55 326.73-10.45L326.73-10.45 326.73-22.45Q324.78-23.1 322.28-23.1L322.28-23.1Q318.48-23.1 316.76-20.35 315.03-17.6 315.03-12.75ZM342.38-8.15L342.38-37.7 347.78-38.4 347.78-8.25Q347.78-3.6 350.43-3.6L350.43-3.6Q351.08-3.6 352.83-3.95L352.83-3.95 353.48-0.25Q353.43-0.25 353.06-0.1 352.68 0.05 352.18 0.2L352.18 0.2Q350.93 0.6 349.13 0.6L349.13 0.6Q345.68 0.6 344.03-1.73 342.38-4.05 342.38-8.15L342.38-8.15ZM376.03-5.7L376.03-5.7 377.88-2.3Q377.03-1.5 374.28-0.45 371.53 0.6 368.38 0.6L368.38 0.6Q362.78 0.6 359.35-2.8 355.93-6.2 355.93-13L355.93-13Q355.93-16.75 357.13-19.63 358.33-22.5 360.23-24.1L360.23-24.1Q364.13-27.3 368.4-27.3 372.68-27.3 375.2-25.13 377.73-22.95 377.73-19.8L377.73-19.8Q377.73-15.65 373.78-13.03 369.83-10.4 361.13-10.4L361.13-10.4Q361.13-8.1 363.05-5.85 364.98-3.6 368.75-3.6 372.53-3.6 376.03-5.7ZM372.88-19.35L372.88-19.35Q372.88-20.85 371.75-21.98 370.63-23.1 368.58-23.1L368.58-23.1Q365.28-23.1 363.15-20.63 361.03-18.15 360.98-14.15L360.98-14.15Q372.88-14.15 372.88-19.35ZM402.53-5.7L402.53-5.7 404.38-2.3Q403.53-1.5 400.78-0.45 398.03 0.6 394.88 0.6L394.88 0.6Q389.28 0.6 385.85-2.8 382.43-6.2 382.43-13L382.43-13Q382.43-16.75 383.63-19.63 384.83-22.5 386.73-24.1L386.73-24.1Q390.63-27.3 394.9-27.3 399.18-27.3 401.7-25.13 404.23-22.95 404.23-19.8L404.23-19.8Q404.23-15.65 400.28-13.03 396.33-10.4 387.63-10.4L387.63-10.4Q387.63-8.1 389.55-5.85 391.48-3.6 395.25-3.6 399.03-3.6 402.53-5.7ZM399.38-19.35L399.38-19.35Q399.38-20.85 398.25-21.98 397.13-23.1 395.08-23.1L395.08-23.1Q391.78-23.1 389.65-20.63 387.53-18.15 387.48-14.15L387.48-14.15Q399.38-14.15 399.38-19.35ZM413.77-31.65L413.77-31.65Q412.62-31.65 411.82-32.43 411.02-33.2 411.02-34.7 411.02-36.2 411.85-37.1 412.67-38 414.12-38 415.57-38 416.4-37.23 417.22-36.45 417.22-34.9L417.22-34.9Q417.22-31.65 413.77-31.65ZM411.52 2.15L411.52 2.15 411.52-26.35 416.92-27.05 416.92 2.25Q416.92 6.35 414.8 8.68 412.67 11 408.22 11L408.22 11Q406.17 11 404.57 10.65L404.57 10.65 404.92 6.6Q405.57 6.65 407.35 6.65 409.12 6.65 410.32 5.58 411.52 4.5 411.52 2.15Z" fill="#ffffff" data-fill-palette-color="primary"></path><path d="M451.52-37.7L456.92-38.4 456.92-6.25Q456.92-4.45 457.34-3.95 457.77-3.45 459.27-3.45L459.27-3.45 459.47-0.3Q458.22 0.15 456.82 0.15L456.82 0.15Q452.92 0.15 452.17-3.4L452.17-3.4Q449.52 0.6 444.27 0.6L444.27 0.6Q439.77 0.6 436.94-2.83 434.12-6.25 434.12-12.9 434.12-19.55 437.39-23.43 440.67-27.3 447.22-27.3L447.22-27.3Q449.22-27.3 451.52-26.75L451.52-26.75 451.52-37.7ZM441.32-5.73Q442.82-3.6 445.62-3.6 448.42-3.6 449.97-5.6 451.52-7.6 451.52-10.35L451.52-10.35 451.52-22.45Q449.82-23.1 447.07-23.1L447.07-23.1Q443.02-23.1 441.42-20.5 439.82-17.9 439.82-12.88 439.82-7.85 441.32-5.73ZM477.67-27.3L477.67-27.3Q482.57-27.3 485.77-23.88 488.97-20.45 488.97-13.8 488.97-7.15 485.69-3.28 482.42 0.6 475.87 0.6L475.87 0.6Q470.97 0.6 467.77-2.88 464.57-6.35 464.57-13 464.57-19.65 467.84-23.48 471.12-27.3 477.67-27.3ZM470.27-12.98Q470.27-7.95 471.94-5.78 473.62-3.6 476.97-3.6 480.32-3.6 481.79-6.2 483.27-8.8 483.27-13.83 483.27-18.85 481.59-20.98 479.92-23.1 476.97-23.1L476.97-23.1Q473.22-23.1 471.74-20.55 470.27-18 470.27-12.98ZM506.86-27.3L506.86-27.3Q511.76-27.3 514.96-23.88 518.16-20.45 518.16-13.8 518.16-7.15 514.89-3.28 511.61 0.6 505.06 0.6L505.06 0.6Q500.16 0.6 496.96-2.88 493.76-6.35 493.76-13 493.76-19.65 497.04-23.48 500.31-27.3 506.86-27.3ZM499.46-12.98Q499.46-7.95 501.14-5.78 502.81-3.6 506.16-3.6 509.51-3.6 510.99-6.2 512.46-8.8 512.46-13.83 512.46-18.85 510.79-20.98 509.11-23.1 506.16-23.1L506.16-23.1Q502.41-23.1 500.94-20.55 499.46-18 499.46-12.98ZM525.56 0L525.56-18.2Q525.56-22.7 524.66-26.3L524.66-26.3 528.86-26.85 530.11-23.6Q533.26-27.3 537.21-27.3L537.21-27.3Q539.86-27.3 541.34-26.05 542.81-24.8 542.81-22.5 542.81-20.2 542.06-18.45L542.06-18.45 537.76-19Q537.76-21.25 537.34-22.18 536.91-23.1 535.59-23.1 534.26-23.1 532.99-22.05 531.71-21 530.96-19.7L530.96-19.7 530.96 0 525.56 0ZM544.81-1.35L544.81-1.35 545.96-5.4Q550.06-3.6 553.01-3.6L553.01-3.6Q558.11-3.6 558.11-7.05L558.11-7.05Q558.11-9.75 553.21-11.55L553.21-11.55Q551.31-12.25 550.36-12.68 549.41-13.1 548.01-14L548.01-14Q545.26-15.8 545.26-19.43 545.26-23.05 547.83-25.13 550.41-27.2 554.81-27.2L554.81-27.2Q559.26-27.2 562.46-25.7L562.46-25.7Q563.06-25.45 563.11-25.45L563.11-25.45 562.06-21.4Q558.41-23 555.56-23L555.56-23Q550.56-23 550.56-19.6L550.56-19.6Q550.56-18.6 551.08-18.07 551.61-17.55 551.91-17.32 552.21-17.1 552.91-16.78 553.61-16.45 553.93-16.32 554.26-16.2 555.16-15.85 556.06-15.5 556.98-15.18 557.91-14.85 558.93-14.3 559.96-13.75 561.11-12.8L561.11-12.8Q563.41-10.9 563.41-7L563.41-7Q563.41-4.35 561.86-2.6L561.86-2.6Q559.11 0.6 552.66 0.6L552.66 0.6Q548.36 0.6 544.81-1.35Z" fill="#ffffff" data-fill-palette-color="accent"></path></g></svg></g></svg></g><g transform="matrix(1,0,0,1,163.310208,42.8556531067128)"><svg viewBox="0 0 232.209792 10.926950807766383" height="10.926950807766383" width="232.209792"><g transform="matrix(1,0,0,1,0,0)"><svg width="232.209792" viewBox="2.2 -34.38 937.93 44.150000000000006" height="10.926950807766383" data-palette-color="#130912"><path d="M13.57-34.38L13.57-34.38Q16.26-34.38 18.2-33.76 20.14-33.15 21.47-32.18 22.8-31.2 23.61-29.97 24.41-28.74 24.84-27.47 25.27-26.2 25.4-25.02 25.54-23.85 25.54-23L25.54-23Q25.54-22.63 25.48-22.11 25.42-21.58 25.05-21.09 24.68-20.61 23.89-20.26 23.1-19.92 21.63-19.92L21.63-19.92Q21.14-19.92 20.41-19.98 19.68-20.04 18.99-20.3 18.31-20.56 17.82-21.03 17.33-21.51 17.33-22.36L17.33-22.36Q17.33-23.68 17.18-24.73 17.02-25.78 16.6-26.51 16.19-27.25 15.45-27.64 14.72-28.03 13.57-28.03L13.57-28.03Q12.38-28.03 11.73-27.53 11.08-27.03 10.79-26.44L10.79-26.44Q10.45-25.73 10.4-24.85L10.4-24.85 10.4-9.38Q10.45-8.3 10.79-7.5L10.79-7.5Q11.08-6.79 11.73-6.2 12.38-5.62 13.57-5.62L13.57-5.62Q14.72-5.62 15.45-6.09 16.19-6.57 16.6-7.37 17.02-8.18 17.18-9.23 17.33-10.28 17.33-11.43L17.33-11.43Q17.33-11.79 17.46-12.18 17.58-12.57 18.02-12.9 18.46-13.23 19.31-13.45 20.17-13.67 21.63-13.67L21.63-13.67Q23.1-13.67 23.89-13.34 24.68-13.01 25.05-12.59 25.42-12.16 25.48-11.76 25.54-11.35 25.54-11.23L25.54-11.23Q25.54-8.54 24.63-6.43 23.73-4.32 22.08-2.86 20.43-1.39 18.15-0.62 15.87 0.15 13.13 0.15L13.13 0.15Q12.7 0.15 11.71 0.07 10.72 0 9.5-0.32 8.28-0.63 6.98-1.27 5.69-1.9 4.63-3.04 3.56-4.17 2.88-5.87 2.2-7.57 2.2-10.01L2.2-10.01 2.2-23.63Q2.2-25.63 2.69-27.17 3.17-28.71 3.97-29.85 4.76-30.98 5.79-31.75 6.81-32.52 7.89-33.03L7.89-33.03Q10.38-34.2 13.57-34.38ZM45.9-20.75L45.9-20.75Q45.9-18.85 44.96-17.97 44.02-17.09 42.28-17.09L42.28-17.09Q42.04-17.09 41.59-17.05 41.14-17.02 40.62-16.86 40.11-16.7 39.58-16.39 39.06-16.09 38.62-15.56 38.18-15.04 37.91-14.23 37.64-13.43 37.64-12.3L37.64-12.3 37.64-5.32Q37.64-4.32 37.53-3.37 37.42-2.42 37.03-1.67 36.64-0.93 35.91-0.46 35.18 0 33.93 0L33.93 0Q32.71 0 32-0.46 31.3-0.93 30.92-1.67 30.54-2.42 30.43-3.37 30.32-4.32 30.32-5.32L30.32-5.32 30.32-18.99Q30.32-20.02 30.43-20.98 30.54-21.95 30.92-22.71 31.3-23.46 32-23.91 32.71-24.37 33.93-24.37L33.93-24.37Q35.18-24.37 35.85-23.82 36.52-23.27 36.84-22.4 37.16-21.53 37.2-20.47 37.25-19.41 37.25-18.41L37.25-18.41 37.64-18.41Q37.99-19.78 38.55-20.89 39.11-22 39.79-22.77 40.48-23.54 41.26-23.95 42.04-24.37 42.82-24.37L42.82-24.37Q43.77-24.37 44.37-24.16 44.97-23.95 45.31-23.51 45.65-23.07 45.77-22.39 45.9-21.7 45.9-20.75ZM68.7-18.85L68.7-5.52Q68.7-4.49 68.62-3.5 68.55-2.51 68.18-1.73 67.82-0.95 67.08-0.48 66.35 0 65.03 0L65.03 0Q63.69 0 62.93-0.45 62.18-0.9 61.81-1.55 61.45-2.2 61.36-2.91 61.27-3.61 61.27-4.1L61.27-4.1Q61.05-3.39 60.65-2.66 60.25-1.93 59.61-1.34 58.98-0.76 58.09-0.38 57.2 0 56 0L56 0Q54.66 0 53.32-0.44 51.97-0.88 50.9-1.9 49.82-2.93 49.15-4.58 48.48-6.23 48.48-8.64L48.48-8.64 48.48-15.72Q48.48-18.16 49.15-19.81 49.82-21.46 50.9-22.47 51.97-23.49 53.32-23.93 54.66-24.37 56-24.37L56-24.37Q57.2-24.37 58.09-24 58.98-23.63 59.61-23.05 60.25-22.46 60.65-21.73 61.05-21 61.27-20.26L61.27-20.26Q61.27-21.48 61.62-22.29 61.96-23.1 62.5-23.57 63.03-24.05 63.7-24.23 64.37-24.41 65.03-24.41L65.03-24.41Q66.25-24.41 66.99-23.94 67.72-23.46 68.1-22.69 68.48-21.92 68.59-20.91 68.7-19.9 68.7-18.85L68.7-18.85ZM56-15.19L56-9.28Q56-8.62 56.05-7.98 56.1-7.35 56.32-6.84 56.54-6.32 56.97-6.02 57.39-5.71 58.15-5.71L58.15-5.71Q59.1-5.71 59.7-6.14 60.3-6.57 60.64-7.46 60.98-8.35 61.12-9.7 61.25-11.06 61.27-12.94L61.27-12.94Q61.27-13.7 61.14-14.69 61.01-15.67 60.66-16.55 60.32-17.43 59.71-18.04 59.1-18.65 58.15-18.65L58.15-18.65Q57.39-18.65 56.97-18.35 56.54-18.04 56.32-17.55 56.1-17.07 56.05-16.44 56-15.82 56-15.19L56-15.19ZM83.64-24.41L85.1-24.41Q85.71-24.41 86.35-24.34 86.98-24.27 87.48-23.97 87.98-23.68 88.3-23.07 88.62-22.46 88.62-21.39L88.62-21.39Q88.62-20.39 88.3-19.81 87.98-19.24 87.48-18.93 86.98-18.63 86.35-18.54 85.71-18.46 85.1-18.46L85.1-18.46 83.64-18.46 83.64-5.52Q83.64-4.44 83.53-3.45 83.42-2.47 83.01-1.7 82.61-0.93 81.84-0.46 81.07 0 79.78 0L79.78 0Q78.53 0 77.81-0.46 77.09-0.93 76.73-1.7 76.36-2.47 76.26-3.45 76.16-4.44 76.16-5.52L76.16-5.52 76.16-18.46 74.8-18.46Q74.11-18.46 73.49-18.54 72.87-18.63 72.39-18.93 71.92-19.24 71.62-19.81 71.33-20.39 71.33-21.39L71.33-21.39Q71.33-22.46 71.62-23.07 71.92-23.68 72.39-23.97 72.87-24.27 73.49-24.34 74.11-24.41 74.8-24.41L74.8-24.41 76.16-24.41Q76.16-26.56 76.36-28.37 76.56-30.18 77.31-31.46 78.07-32.74 79.56-33.46 81.05-34.18 83.64-34.18L83.64-34.18Q84.73-34.18 85.71-33.98 86.69-33.79 87.42-33.37 88.15-32.96 88.58-32.29 89.01-31.62 89.01-30.66L89.01-30.66Q89.01-29.79 88.7-29.2 88.4-28.61 87.96-28.25 87.52-27.88 86.99-27.73 86.47-27.59 86.03-27.59L86.03-27.59Q85.66-27.59 85.34-27.76 85.03-27.93 84.61-27.93L84.61-27.93Q84.27-27.93 84.09-27.71 83.9-27.49 83.79-27.12 83.68-26.76 83.66-26.32 83.64-25.88 83.64-25.44L83.64-25.44 83.64-24.41ZM94.57-24.41L95.94-24.41 95.94-28.71Q95.94-29.74 96.05-30.71 96.16-31.69 96.55-32.46 96.94-33.23 97.67-33.7 98.4-34.18 99.65-34.18L99.65-34.18Q100.87-34.18 101.6-33.7 102.33-33.23 102.71-32.46 103.09-31.69 103.2-30.71 103.31-29.74 103.31-28.71L103.31-28.71 103.31-24.41 105.31-24.41Q105.95-24.41 106.58-24.35 107.22-24.29 107.72-24 108.22-23.71 108.52-23.12 108.83-22.53 108.83-21.48L108.83-21.48Q108.83-20.48 108.52-19.9 108.22-19.31 107.72-19.02 107.22-18.73 106.58-18.64 105.95-18.55 105.31-18.55L105.31-18.55 103.31-18.55 103.31-10.01Q103.31-9.52 103.35-8.97 103.38-8.42 103.6-7.96 103.82-7.5 104.26-7.19 104.7-6.88 105.51-6.88L105.51-6.88Q106.39-6.88 107.01-6.75 107.63-6.62 108.03-6.27 108.44-5.93 108.63-5.32 108.83-4.71 108.83-3.76L108.83-3.76Q108.83-2.78 108.38-2.08 107.92-1.37 107.17-0.9 106.41-0.44 105.41-0.22 104.41 0 103.31 0L103.31 0Q101.58 0 100.34-0.37 99.11-0.73 98.29-1.4 97.48-2.08 97-3.02 96.52-3.96 96.29-5.13 96.06-6.3 96-7.65 95.94-9.01 95.94-10.5L95.94-10.5 95.94-18.55 94.57-18.55Q93.94-18.55 93.31-18.64 92.69-18.73 92.2-19.02 91.71-19.31 91.41-19.9 91.1-20.48 91.1-21.48L91.1-21.48Q91.1-22.53 91.41-23.12 91.71-23.71 92.2-24 92.69-24.29 93.31-24.35 93.94-24.41 94.57-24.41L94.57-24.41ZM114.64-5.47L114.64-18.95Q114.64-19.97 114.75-20.95 114.86-21.92 115.25-22.69 115.64-23.46 116.37-23.94 117.1-24.41 118.35-24.41L118.35-24.41Q119.59-24.41 120.32-23.94 121.06-23.46 121.45-22.69 121.84-21.92 121.95-20.95 122.06-19.97 122.06-18.95L122.06-18.95 122.06-5.47Q122.06-4.44 121.95-3.45 121.84-2.47 121.45-1.7 121.06-0.93 120.32-0.46 119.59 0 118.35 0L118.35 0Q117.1 0 116.37-0.46 115.64-0.93 115.25-1.7 114.86-2.47 114.75-3.45 114.64-4.44 114.64-5.47L114.64-5.47ZM122.11-30.47L122.11-30.47Q122.11-28.59 121.13-27.67 120.15-26.76 118.4-26.76L118.4-26.76Q116.64-26.76 115.66-27.67 114.68-28.59 114.68-30.47L114.68-30.47Q114.68-32.42 115.66-33.3 116.64-34.18 118.4-34.18L118.4-34.18Q120.28-34.18 121.19-33.3 122.11-32.42 122.11-30.47ZM149.74-15.72L149.74-5.57Q149.74-4.52 149.62-3.52 149.5-2.51 149.09-1.73 148.69-0.95 147.95-0.48 147.2 0 145.93 0L145.93 0Q144.69 0 143.95-0.48 143.22-0.95 142.83-1.73 142.44-2.51 142.33-3.52 142.22-4.52 142.22-5.57L142.22-5.57 142.22-15.09Q142.22-15.77 142.16-16.43 142.1-17.09 141.88-17.59 141.66-18.09 141.23-18.4 140.81-18.7 140.07-18.7L140.07-18.7Q139.07-18.7 138.46-18.04 137.85-17.38 137.5-16.24 137.14-15.09 137.02-13.54 136.9-11.99 136.9-10.21L136.9-10.21 136.9-5.57Q136.9-4.52 136.78-3.52 136.65-2.51 136.25-1.73 135.85-0.95 135.1-0.48 134.36 0 133.09 0L133.09 0Q131.85 0 131.11-0.48 130.38-0.95 129.99-1.73 129.6-2.51 129.49-3.52 129.38-4.52 129.38-5.57L129.38-5.57 129.38-18.9Q129.38-19.95 129.45-20.94 129.53-21.92 129.89-22.69 130.26-23.46 131-23.94 131.75-24.41 133.09-24.41L133.09-24.41Q134.43-24.41 135.19-23.96 135.95-23.51 136.33-22.88 136.7-22.24 136.8-21.53 136.9-20.83 136.9-20.31L136.9-20.31Q137.09-21.02 137.51-21.75 137.92-22.49 138.57-23.07 139.22-23.66 140.12-24.04 141.03-24.41 142.22-24.41L142.22-24.41Q143.56-24.41 144.91-23.97 146.25-23.54 147.32-22.51 148.4-21.48 149.07-19.82 149.74-18.16 149.74-15.72L149.74-15.72ZM175.08-18.9L175.08 0.73Q175.08 2.93 174.48 4.44 173.88 5.96 172.96 6.96 172.03 7.96 170.89 8.52 169.76 9.08 168.67 9.36 167.59 9.64 166.68 9.7 165.78 9.77 165.31 9.77L165.31 9.77Q163.58 9.77 161.85 9.52 160.11 9.28 158.69 8.62 157.26 7.96 156.32 6.84 155.38 5.71 155.26 3.96L155.26 3.96Q155.26 3.66 155.35 3.3 155.45 2.93 155.79 2.6 156.13 2.27 156.82 2.04 157.5 1.81 158.67 1.81L158.67 1.81Q160.09 1.81 160.85 2.04 161.6 2.27 161.97 2.6 162.34 2.93 162.45 3.31 162.56 3.69 162.68 4L162.68 4Q162.87 4.52 163.45 4.72 164.02 4.93 165.02 4.93L165.02 4.93Q165.92 4.93 166.45 4.52 166.97 4.1 167.24 3.53 167.51 2.95 167.59 2.36 167.66 1.76 167.66 1.37L167.66 1.37 167.66-4.1Q167.44-3.37 167.04-2.64 166.63-1.9 166-1.32 165.36-0.73 164.47-0.37 163.58 0 162.38 0L162.38 0Q161.04 0 159.7-0.44 158.36-0.88 157.27-1.89 156.18-2.91 155.5-4.57 154.82-6.23 154.82-8.69L154.82-8.69 154.82-15.77Q154.82-18.19 155.5-19.84 156.18-21.48 157.27-22.51 158.36-23.54 159.7-23.97 161.04-24.41 162.38-24.41L162.38-24.41Q163.58-24.41 164.47-24.04 165.36-23.66 166-23.07 166.63-22.49 167.04-21.75 167.44-21.02 167.66-20.31L167.66-20.31Q167.66-20.8 167.74-21.51 167.83-22.22 168.2-22.86 168.56-23.51 169.32-23.96 170.08-24.41 171.42-24.41L171.42-24.41Q172.74-24.41 173.47-23.94 174.2-23.46 174.57-22.68 174.93-21.9 175.01-20.91 175.08-19.92 175.08-18.9L175.08-18.9ZM162.38-15.14L162.38-9.23Q162.38-8.59 162.43-7.96 162.48-7.32 162.7-6.82 162.92-6.32 163.35-6.02 163.78-5.71 164.53-5.71L164.53-5.71Q165.49-5.71 166.1-6.32 166.71-6.93 167.05-7.82 167.39-8.72 167.52-9.7 167.66-10.69 167.66-11.47L167.66-11.47Q167.63-13.33 167.5-14.7 167.37-16.06 167.02-16.96 166.68-17.85 166.08-18.27 165.49-18.7 164.53-18.7L164.53-18.7Q163.78-18.7 163.35-18.4 162.92-18.09 162.7-17.58 162.48-17.07 162.43-16.43 162.38-15.8 162.38-15.14L162.38-15.14ZM204.57-34.18L214.14-34.18Q215.11-34.18 216.12-34.11 217.12-34.03 217.92-33.69 218.73-33.35 219.24-32.65 219.75-31.96 219.75-30.71L219.75-30.71Q219.75-29.47 219.24-28.77 218.73-28.08 217.92-27.73 217.12-27.39 216.12-27.32 215.11-27.25 214.14-27.25L214.14-27.25 208.33-27.25 208.33-20.61 211.4-20.61Q212.38-20.61 213.37-20.54 214.36-20.48 215.13-20.15 215.9-19.82 216.38-19.15 216.87-18.48 216.87-17.29L216.87-17.29Q216.87-16.06 216.38-15.41 215.9-14.75 215.13-14.42 214.36-14.09 213.37-14.03 212.38-13.96 211.4-13.96L211.4-13.96 208.33-13.96 208.33-6.93 214.14-6.93Q215.11-6.93 216.12-6.86 217.12-6.79 217.92-6.46 218.73-6.13 219.24-5.43 219.75-4.74 219.75-3.52L219.75-3.52Q219.75-2.25 219.23-1.54 218.7-0.83 217.9-0.49 217.09-0.15 216.09-0.07 215.09 0 214.14 0L214.14 0 204.57 0Q203.2 0 202.46-0.49 201.71-0.98 201.37-1.77 201.03-2.56 200.97-3.56 200.91-4.57 200.91-5.62L200.91-5.62 200.91-28.56Q200.91-29.61 200.97-30.62 201.03-31.62 201.37-32.41 201.71-33.2 202.46-33.69 203.2-34.18 204.57-34.18L204.57-34.18ZM239.33-24.41L239.33-24.41Q239.75-24.41 240.21-24.27 240.67-24.12 241.19-23.78L241.19-23.78Q241.92-23.29 242.24-22.73 242.55-22.17 242.55-21.53L242.55-21.53Q242.55-20.73 242.16-19.85 241.77-18.97 241.19-18.16L241.19-18.16 236.84-12.21 241.19-6.3Q241.75-5.44 242.15-4.59 242.55-3.74 242.55-2.93L242.55-2.93Q242.55-2.29 242.24-1.71 241.92-1.12 241.19-0.63L241.19-0.63Q240.21 0 239.38 0L239.38 0Q238.87 0 238.41-0.22 237.96-0.44 237.56-0.81 237.16-1.17 236.78-1.66 236.4-2.15 236.01-2.69L236.01-2.69 233.08-6.79 230.05-2.69Q229.71-2.12 229.35-1.64 228.98-1.15 228.58-0.78 228.17-0.42 227.73-0.21 227.29 0 226.78 0L226.78 0Q225.95 0 224.98-0.63L224.98-0.63Q224.24-1.15 223.93-1.72 223.61-2.29 223.61-2.93L223.61-2.93Q223.61-3.74 224.01-4.59 224.41-5.44 224.98-6.3L224.98-6.3 229.08-12.21 224.98-18.16Q224.41-19.02 224.01-19.85 223.61-20.68 223.61-21.48L223.61-21.48Q223.61-22.12 223.93-22.69 224.24-23.27 224.98-23.78L224.98-23.78Q225.95-24.41 226.78-24.41L226.78-24.41Q227.29-24.41 227.73-24.21 228.17-24 228.58-23.63 228.98-23.27 229.35-22.79 229.71-22.31 230.05-21.78L230.05-21.78 233.08-17.68 236.01-21.78Q236.38-22.31 236.74-22.79 237.11-23.27 237.51-23.63 237.91-24 238.37-24.21 238.82-24.41 239.33-24.41ZM253.93-16.02L253.93-8.45Q253.93-8.06 254-7.46 254.07-6.86 254.34-6.29 254.61-5.71 255.14-5.3 255.66-4.88 256.56-4.88L256.56-4.88Q257.64-4.88 258.25-5.13 258.86-5.37 259.15-5.8 259.45-6.23 259.52-6.8 259.59-7.37 259.59-8.01L259.59-8.01Q259.59-8.33 259.7-8.73 259.81-9.13 260.23-9.48 260.64-9.84 261.46-10.07 262.28-10.3 263.69-10.3L263.69-10.3Q264.99-10.3 265.7-10.01 266.4-9.72 266.73-9.31 267.06-8.91 267.11-8.48 267.16-8.06 267.16-7.81L267.16-7.81Q267.16-6.25 266.68-5.07 266.21-3.88 265.4-3.02 264.6-2.15 263.55-1.56 262.5-0.98 261.31-0.63 260.13-0.29 258.91-0.15 257.69 0 256.56 0L256.56 0Q254.64 0 252.83-0.51 251.02-1.03 249.62-2.12 248.21-3.22 247.36-4.94 246.51-6.67 246.51-9.08L246.51-9.08 246.51-14.79Q246.51-17.11 247.06-18.73 247.6-20.34 248.48-21.41 249.36-22.49 250.46-23.08 251.56-23.68 252.68-23.97 253.81-24.27 254.82-24.34 255.83-24.41 256.56-24.41L256.56-24.41Q258.74-24.41 260.36-24.05 261.98-23.68 263.16-23.07 264.33-22.46 265.1-21.67 265.87-20.87 266.31-20 266.74-19.12 266.93-18.24 267.11-17.36 267.11-16.6L267.11-16.6Q267.11-16.21 267.06-15.69 267.01-15.16 266.68-14.69 266.35-14.21 265.65-13.87 264.94-13.53 263.64-13.53L263.64-13.53Q263.18-13.53 262.48-13.56 261.79-13.6 261.13-13.82 260.47-14.04 260.01-14.5 259.54-14.97 259.54-15.82L259.54-15.82Q259.54-16.41 259.48-16.96 259.42-17.5 259.13-17.92 258.83-18.33 258.24-18.59 257.64-18.85 256.56-18.85L256.56-18.85Q255.66-18.85 255.14-18.55 254.61-18.26 254.34-17.82 254.07-17.38 254-16.89 253.93-16.41 253.93-16.02L253.93-16.02ZM291.72-15.43L291.72-13.92Q291.72-13.53 291.67-13 291.62-12.48 291.29-12 290.96-11.52 290.25-11.18 289.55-10.84 288.25-10.84L288.25-10.84 278.53-10.84 278.53-8.5Q278.53-7.91 278.68-7.28 278.83-6.64 279.18-6.1 279.54-5.57 280.12-5.22 280.71-4.88 281.56-4.88L281.56-4.88Q282.54-4.88 283.06-5.11 283.59-5.35 283.89-5.69 284.2-6.03 284.44-6.42 284.69-6.81 285.09-7.15 285.49-7.5 286.21-7.73 286.93-7.96 288.2-7.96L288.2-7.96Q288.81-7.96 289.39-7.86 289.96-7.76 290.4-7.5 290.84-7.23 291.11-6.75 291.38-6.27 291.38-5.52L291.38-5.52Q291.38-3.93 290.38-2.87 289.37-1.81 287.86-1.17 286.35-0.54 284.58-0.27 282.81 0 281.27 0L281.27 0Q279.24-0.02 277.41-0.51 275.58-1 274.18-2.08 272.77-3.15 271.94-4.88 271.11-6.62 271.11-9.13L271.11-9.13 271.11-14.84Q271.11-17.16 271.66-18.77 272.21-20.39 273.09-21.46 273.97-22.53 275.07-23.13 276.17-23.73 277.29-24.02 278.41-24.32 279.43-24.39 280.44-24.46 281.17-24.46L281.17-24.46Q283.64-24.46 285.38-24.02 287.13-23.58 288.3-22.88 289.47-22.17 290.16-21.24 290.84-20.31 291.18-19.32 291.52-18.33 291.62-17.32 291.72-16.31 291.72-15.43L291.72-15.43ZM278.53-16.21L278.53-14.5 284.64-14.5Q284.64-15.65 284.58-16.54 284.52-17.43 284.21-18.04 283.91-18.65 283.26-18.97 282.61-19.29 281.42-19.29L281.42-19.29Q280.41-19.29 279.84-18.97 279.27-18.65 278.97-18.18 278.68-17.7 278.61-17.16 278.53-16.63 278.53-16.21L278.53-16.21ZM297.18-5.47L297.18-28.76Q297.18-29.79 297.29-30.76 297.4-31.74 297.79-32.5 298.19-33.25 298.92-33.72 299.65-34.18 300.9-34.18L300.9-34.18Q302.16-34.18 302.9-33.72 303.63-33.25 304.01-32.5 304.39-31.74 304.5-30.76 304.61-29.79 304.61-28.76L304.61-28.76 304.61-5.47Q304.61-4.44 304.5-3.45 304.39-2.47 304.01-1.7 303.63-0.93 302.9-0.46 302.16 0 300.9 0L300.9 0Q299.65 0 298.92-0.46 298.19-0.93 297.79-1.7 297.4-2.47 297.29-3.45 297.18-4.44 297.18-5.47L297.18-5.47ZM311.49-5.47L311.49-28.76Q311.49-29.79 311.6-30.76 311.71-31.74 312.1-32.5 312.49-33.25 313.22-33.72 313.95-34.18 315.2-34.18L315.2-34.18Q316.47-34.18 317.2-33.72 317.93-33.25 318.31-32.5 318.69-31.74 318.8-30.76 318.91-29.79 318.91-28.76L318.91-28.76 318.91-5.47Q318.91-4.44 318.8-3.45 318.69-2.47 318.31-1.7 317.93-0.93 317.2-0.46 316.47 0 315.2 0L315.2 0Q313.95 0 313.22-0.46 312.49-0.93 312.1-1.7 311.71-2.47 311.6-3.45 311.49-4.44 311.49-5.47L311.49-5.47ZM345.23-15.43L345.23-13.92Q345.23-13.53 345.18-13 345.13-12.48 344.8-12 344.47-11.52 343.76-11.18 343.05-10.84 341.76-10.84L341.76-10.84 332.04-10.84 332.04-8.5Q332.04-7.91 332.19-7.28 332.34-6.64 332.69-6.1 333.04-5.57 333.63-5.22 334.22-4.88 335.07-4.88L335.07-4.88Q336.05-4.88 336.57-5.11 337.1-5.35 337.4-5.69 337.71-6.03 337.95-6.42 338.19-6.81 338.6-7.15 339-7.5 339.72-7.73 340.44-7.96 341.71-7.96L341.71-7.96Q342.32-7.96 342.89-7.86 343.47-7.76 343.91-7.5 344.35-7.23 344.62-6.75 344.88-6.27 344.88-5.52L344.88-5.52Q344.88-3.93 343.88-2.87 342.88-1.81 341.37-1.17 339.86-0.54 338.09-0.27 336.32 0 334.78 0L334.78 0Q332.75-0.02 330.92-0.51 329.09-1 327.68-2.08 326.28-3.15 325.45-4.88 324.62-6.62 324.62-9.13L324.62-9.13 324.62-14.84Q324.62-17.16 325.17-18.77 325.72-20.39 326.6-21.46 327.48-22.53 328.58-23.13 329.67-23.73 330.8-24.02 331.92-24.32 332.93-24.39 333.95-24.46 334.68-24.46L334.68-24.46Q337.15-24.46 338.89-24.02 340.64-23.58 341.81-22.88 342.98-22.17 343.66-21.24 344.35-20.31 344.69-19.32 345.03-18.33 345.13-17.32 345.23-16.31 345.23-15.43L345.23-15.43ZM332.04-16.21L332.04-14.5 338.15-14.5Q338.15-15.65 338.09-16.54 338.02-17.43 337.72-18.04 337.41-18.65 336.77-18.97 336.12-19.29 334.92-19.29L334.92-19.29Q333.92-19.29 333.35-18.97 332.78-18.65 332.48-18.18 332.19-17.7 332.12-17.16 332.04-16.63 332.04-16.21L332.04-16.21ZM370.86-15.72L370.86-5.57Q370.86-4.52 370.74-3.52 370.61-2.51 370.21-1.73 369.81-0.95 369.06-0.48 368.32 0 367.05 0L367.05 0Q365.8 0 365.07-0.48 364.34-0.95 363.95-1.73 363.56-2.51 363.45-3.52 363.34-4.52 363.34-5.57L363.34-5.57 363.34-15.09Q363.34-15.77 363.28-16.43 363.22-17.09 363-17.59 362.78-18.09 362.35-18.4 361.92-18.7 361.19-18.7L361.19-18.7Q360.19-18.7 359.58-18.04 358.97-17.38 358.61-16.24 358.26-15.09 358.14-13.54 358.02-11.99 358.02-10.21L358.02-10.21 358.02-5.57Q358.02-4.52 357.89-3.52 357.77-2.51 357.37-1.73 356.97-0.95 356.22-0.48 355.48 0 354.21 0L354.21 0Q352.96 0 352.23-0.48 351.5-0.95 351.11-1.73 350.72-2.51 350.61-3.52 350.5-4.52 350.5-5.57L350.5-5.57 350.5-18.9Q350.5-19.95 350.57-20.94 350.64-21.92 351.01-22.69 351.38-23.46 352.12-23.94 352.87-24.41 354.21-24.41L354.21-24.41Q355.55-24.41 356.31-23.96 357.06-23.51 357.44-22.88 357.82-22.24 357.92-21.53 358.02-20.83 358.02-20.31L358.02-20.31Q358.21-21.02 358.63-21.75 359.04-22.49 359.69-23.07 360.34-23.66 361.24-24.04 362.14-24.41 363.34-24.41L363.34-24.41Q364.68-24.41 366.02-23.97 367.37-23.54 368.44-22.51 369.52-21.48 370.19-19.82 370.86-18.16 370.86-15.72L370.86-15.72ZM383.16-16.02L383.16-8.45Q383.16-8.06 383.23-7.46 383.31-6.86 383.58-6.29 383.84-5.71 384.37-5.3 384.89-4.88 385.8-4.88L385.8-4.88Q386.87-4.88 387.48-5.13 388.09-5.37 388.39-5.8 388.68-6.23 388.75-6.8 388.82-7.37 388.82-8.01L388.82-8.01Q388.82-8.33 388.93-8.73 389.04-9.13 389.46-9.48 389.87-9.84 390.69-10.07 391.51-10.3 392.93-10.3L392.93-10.3Q394.22-10.3 394.93-10.01 395.64-9.72 395.97-9.31 396.3-8.91 396.34-8.48 396.39-8.06 396.39-7.81L396.39-7.81Q396.39-6.25 395.92-5.07 395.44-3.88 394.64-3.02 393.83-2.15 392.78-1.56 391.73-0.98 390.55-0.63 389.36-0.29 388.14-0.15 386.92 0 385.8 0L385.8 0Q383.87 0 382.06-0.51 380.26-1.03 378.85-2.12 377.45-3.22 376.59-4.94 375.74-6.67 375.74-9.08L375.74-9.08 375.74-14.79Q375.74-17.11 376.29-18.73 376.84-20.34 377.72-21.41 378.6-22.49 379.69-23.08 380.79-23.68 381.92-23.97 383.04-24.27 384.05-24.34 385.06-24.41 385.8-24.41L385.8-24.41Q387.97-24.41 389.59-24.05 391.22-23.68 392.39-23.07 393.56-22.46 394.33-21.67 395.1-20.87 395.54-20 395.98-19.12 396.16-18.24 396.34-17.36 396.34-16.6L396.34-16.6Q396.34-16.21 396.3-15.69 396.25-15.16 395.92-14.69 395.59-14.21 394.88-13.87 394.17-13.53 392.88-13.53L392.88-13.53Q392.41-13.53 391.72-13.56 391.02-13.6 390.36-13.82 389.7-14.04 389.24-14.5 388.78-14.97 388.78-15.82L388.78-15.82Q388.78-16.41 388.71-16.96 388.65-17.5 388.36-17.92 388.07-18.33 387.47-18.59 386.87-18.85 385.8-18.85L385.8-18.85Q384.89-18.85 384.37-18.55 383.84-18.26 383.58-17.82 383.31-17.38 383.23-16.89 383.16-16.41 383.16-16.02L383.16-16.02ZM420.95-15.43L420.95-13.92Q420.95-13.53 420.9-13 420.85-12.48 420.52-12 420.19-11.52 419.49-11.18 418.78-10.84 417.48-10.84L417.48-10.84 407.77-10.84 407.77-8.5Q407.77-7.91 407.91-7.28 408.06-6.64 408.41-6.1 408.77-5.57 409.35-5.22 409.94-4.88 410.79-4.88L410.79-4.88Q411.77-4.88 412.3-5.11 412.82-5.35 413.13-5.69 413.43-6.03 413.68-6.42 413.92-6.81 414.32-7.15 414.73-7.5 415.45-7.73 416.17-7.96 417.44-7.96L417.44-7.96Q418.05-7.96 418.62-7.86 419.19-7.76 419.63-7.5 420.07-7.23 420.34-6.75 420.61-6.27 420.61-5.52L420.61-5.52Q420.61-3.93 419.61-2.87 418.61-1.81 417.09-1.17 415.58-0.54 413.81-0.27 412.04 0 410.5 0L410.5 0Q408.48-0.02 406.64-0.51 404.81-1 403.41-2.08 402.01-3.15 401.18-4.88 400.35-6.62 400.35-9.13L400.35-9.13 400.35-14.84Q400.35-17.16 400.89-18.77 401.44-20.39 402.32-21.46 403.2-22.53 404.3-23.13 405.4-23.73 406.52-24.02 407.65-24.32 408.66-24.39 409.67-24.46 410.4-24.46L410.4-24.46Q412.87-24.46 414.62-24.02 416.36-23.58 417.53-22.88 418.71-22.17 419.39-21.24 420.07-20.31 420.41-19.32 420.76-18.33 420.85-17.32 420.95-16.31 420.95-15.43L420.95-15.43ZM407.77-16.21L407.77-14.5 413.87-14.5Q413.87-15.65 413.81-16.54 413.75-17.43 413.44-18.04 413.14-18.65 412.49-18.97 411.84-19.29 410.65-19.29L410.65-19.29Q409.65-19.29 409.07-18.97 408.5-18.65 408.21-18.18 407.91-17.7 407.84-17.16 407.77-16.63 407.77-16.21L407.77-16.21ZM446.24-5.47L446.24-18.95Q446.24-19.97 446.35-20.95 446.46-21.92 446.85-22.69 447.24-23.46 447.97-23.94 448.7-24.41 449.95-24.41L449.95-24.41Q451.2-24.41 451.93-23.94 452.66-23.46 453.05-22.69 453.44-21.92 453.55-20.95 453.66-19.97 453.66-18.95L453.66-18.95 453.66-5.47Q453.66-4.44 453.55-3.45 453.44-2.47 453.05-1.7 452.66-0.93 451.93-0.46 451.2 0 449.95 0L449.95 0Q448.7 0 447.97-0.46 447.24-0.93 446.85-1.7 446.46-2.47 446.35-3.45 446.24-4.44 446.24-5.47L446.24-5.47ZM453.71-30.47L453.71-30.47Q453.71-28.59 452.73-27.67 451.76-26.76 450-26.76L450-26.76Q448.24-26.76 447.26-27.67 446.29-28.59 446.29-30.47L446.29-30.47Q446.29-32.42 447.26-33.3 448.24-34.18 450-34.18L450-34.18Q451.88-34.18 452.79-33.3 453.71-32.42 453.71-30.47ZM481.34-15.72L481.34-5.57Q481.34-4.52 481.22-3.52 481.1-2.51 480.7-1.73 480.29-0.95 479.55-0.48 478.8 0 477.54 0L477.54 0Q476.29 0 475.56-0.48 474.83-0.95 474.43-1.73 474.04-2.51 473.93-3.52 473.82-4.52 473.82-5.57L473.82-5.57 473.82-15.09Q473.82-15.77 473.76-16.43 473.7-17.09 473.48-17.59 473.26-18.09 472.84-18.4 472.41-18.7 471.68-18.7L471.68-18.7Q470.68-18.7 470.06-18.04 469.45-17.38 469.1-16.24 468.75-15.09 468.62-13.54 468.5-11.99 468.5-10.21L468.5-10.21 468.5-5.57Q468.5-4.52 468.38-3.52 468.26-2.51 467.86-1.73 467.45-0.95 466.71-0.48 465.96 0 464.69 0L464.69 0Q463.45 0 462.72-0.48 461.98-0.95 461.59-1.73 461.2-2.51 461.09-3.52 460.98-4.52 460.98-5.57L460.98-5.57 460.98-18.9Q460.98-19.95 461.06-20.94 461.13-21.92 461.5-22.69 461.86-23.46 462.61-23.94 463.35-24.41 464.69-24.41L464.69-24.41Q466.04-24.41 466.79-23.96 467.55-23.51 467.93-22.88 468.31-22.24 468.4-21.53 468.5-20.83 468.5-20.31L468.5-20.31Q468.7-21.02 469.11-21.75 469.53-22.49 470.17-23.07 470.82-23.66 471.72-24.04 472.63-24.41 473.82-24.41L473.82-24.41Q475.17-24.41 476.51-23.97 477.85-23.54 478.93-22.51 480-21.48 480.67-19.82 481.34-18.16 481.34-15.72L481.34-15.72ZM507.12-10.01L507.12-28.61Q507.12-29.66 507.23-30.66 507.34-31.67 507.74-32.45 508.15-33.23 508.95-33.7 509.76-34.18 511.17-34.18L511.17-34.18Q512.59-34.18 513.41-33.7 514.22-33.23 514.63-32.45 515.03-31.67 515.13-30.66 515.23-29.66 515.23-28.61L515.23-28.61 515.23-9.38Q515.3-8.3 515.67-7.47L515.67-7.47Q515.81-7.1 516.06-6.76 516.3-6.42 516.63-6.15 516.96-5.88 517.41-5.73 517.86-5.57 518.45-5.57L518.45-5.57Q519.03-5.57 519.5-5.73 519.96-5.88 520.29-6.15 520.62-6.42 520.87-6.76 521.11-7.1 521.26-7.47L521.26-7.47Q521.62-8.3 521.67-9.38L521.67-9.38 521.67-28.61Q521.67-29.66 521.77-30.66 521.87-31.67 522.27-32.45 522.67-33.23 523.48-33.7 524.28-34.18 525.72-34.18L525.72-34.18Q527.14-34.18 527.95-33.7 528.75-33.23 529.15-32.45 529.56-31.67 529.67-30.66 529.78-29.66 529.78-28.61L529.78-28.61 529.78-10.01Q529.78-7.47 528.96-5.57 528.14-3.66 526.64-2.38 525.14-1.1 523.05-0.45 520.96 0.2 518.45 0.2L518.45 0.2Q515.91 0.2 513.83-0.48 511.76-1.15 510.26-2.44 508.76-3.74 507.94-5.64 507.12-7.54 507.12-10.01L507.12-10.01ZM547.16-13.48L544.03-13.48 544.03-5.57Q544.03-4.52 543.97-3.52 543.91-2.51 543.56-1.73 543.2-0.95 542.44-0.48 541.69 0 540.27 0L540.27 0Q538.9 0 538.16-0.48 537.42-0.95 537.07-1.73 536.73-2.51 536.67-3.52 536.61-4.52 536.61-5.57L536.61-5.57 536.61-28.61Q536.61-29.66 536.67-30.66 536.73-31.67 537.07-32.45 537.42-33.23 538.16-33.7 538.9-34.18 540.27-34.18L540.27-34.18 548.33-34.18Q551.36-34.03 553.75-32.91L553.75-32.91Q554.77-32.42 555.74-31.69 556.7-30.96 557.47-29.9 558.24-28.83 558.7-27.38 559.17-25.93 559.17-24.02L559.17-24.02Q559.17-21.41 558.35-19.45 557.53-17.48 555.98-16.15 554.43-14.82 552.2-14.15 549.96-13.48 547.16-13.48L547.16-13.48ZM544.03-19.29L547.35-19.29Q548.57-19.36 549.55-19.87L549.55-19.87Q549.96-20.09 550.36-20.43 550.75-20.78 551.06-21.28 551.38-21.78 551.56-22.46 551.75-23.14 551.75-24.02L551.75-24.02Q551.75-24.85 551.56-25.48 551.38-26.1 551.09-26.55 550.79-27 550.43-27.32 550.06-27.64 549.67-27.86L549.67-27.86Q548.74-28.32 547.6-28.42L547.6-28.42 544.03-28.42 544.03-19.29ZM580.16-34.18L580.16-34.18Q580.87-34.18 581.53-33.94 582.19-33.69 582.69-33.28 583.19-32.86 583.48-32.29 583.78-31.71 583.78-31.05L583.78-31.05Q583.78-30.74 583.74-30.46 583.7-30.18 583.65-29.96L583.65-29.96Q583.58-29.69 583.53-29.49L583.53-29.49Q581.87-22.97 580.06-16.2 578.26-9.42 576.6-2.93L576.6-2.93Q576.23-2.1 575.62-1.46L575.62-1.46Q575.11-0.9 574.29-0.45 573.47 0 572.25 0L572.25 0 571.47 0Q570.25 0 569.42-0.45 568.59-0.9 568.08-1.46L568.08-1.46Q567.47-2.1 567.13-2.93L567.13-2.93 560.19-29.49Q560.12-29.69 560.07-29.96L560.07-29.96Q559.95-30.44 559.95-31.05L559.95-31.05Q559.95-31.71 560.23-32.29 560.51-32.86 561-33.28 561.49-33.69 562.14-33.94 562.8-34.18 563.56-34.18L563.56-34.18Q564.73-34.18 565.45-33.67 566.17-33.15 566.59-32.52L566.59-32.52Q567.05-31.79 567.27-30.86L567.27-30.86Q567.56-29.69 567.91-28.21 568.25-26.73 568.59-25.15 568.93-23.56 569.29-21.91 569.64-20.26 569.96-18.73L569.96-18.73Q570.71-15.11 571.47-11.33L571.47-11.33 572.25-11.33Q573.08-15.11 573.86-18.73L573.86-18.73Q574.18-20.26 574.53-21.91 574.89-23.56 575.23-25.15 575.57-26.73 575.89-28.21 576.21-29.69 576.45-30.86L576.45-30.86Q576.7-31.79 577.16-32.52L577.16-32.52Q577.57-33.15 578.28-33.67 578.99-34.18 580.16-34.18ZM597.54-34.38L597.54-34.38Q600.23-34.38 602.17-33.76 604.11-33.15 605.44-32.18 606.77-31.2 607.58-29.97 608.38-28.74 608.81-27.47 609.24-26.2 609.37-25.02 609.51-23.85 609.51-23L609.51-23Q609.51-22.63 609.44-22.11 609.38-21.58 609.02-21.09 608.65-20.61 607.86-20.26 607.06-19.92 605.6-19.92L605.6-19.92Q605.11-19.92 604.38-19.98 603.65-20.04 602.96-20.3 602.28-20.56 601.79-21.03 601.3-21.51 601.3-22.36L601.3-22.36Q601.3-23.68 601.14-24.73 600.98-25.78 600.57-26.51 600.15-27.25 599.42-27.64 598.69-28.03 597.54-28.03L597.54-28.03Q596.35-28.03 595.7-27.53 595.05-27.03 594.76-26.44L594.76-26.44Q594.42-25.73 594.37-24.85L594.37-24.85 594.37-9.38Q594.42-8.3 594.76-7.5L594.76-7.5Q595.05-6.79 595.7-6.2 596.35-5.62 597.54-5.62L597.54-5.62Q598.69-5.62 599.42-6.09 600.15-6.57 600.57-7.37 600.98-8.18 601.14-9.23 601.3-10.28 601.3-11.43L601.3-11.43Q601.3-11.79 601.42-12.18 601.55-12.57 601.99-12.9 602.43-13.23 603.28-13.45 604.13-13.67 605.6-13.67L605.6-13.67Q607.06-13.67 607.86-13.34 608.65-13.01 609.02-12.59 609.38-12.16 609.44-11.76 609.51-11.35 609.51-11.23L609.51-11.23Q609.51-8.54 608.6-6.43 607.7-4.32 606.05-2.86 604.4-1.39 602.12-0.62 599.84 0.15 597.1 0.15L597.1 0.15Q596.66 0.15 595.67 0.07 594.69 0 593.47-0.32 592.24-0.63 590.95-1.27 589.66-1.9 588.59-3.04 587.53-4.17 586.85-5.87 586.17-7.57 586.17-10.01L586.17-10.01 586.17-23.63Q586.17-25.63 586.65-27.17 587.14-28.71 587.94-29.85 588.73-30.98 589.75-31.75 590.78-32.52 591.85-33.03L591.85-33.03Q594.34-34.2 597.54-34.38ZM642.85-24.41L644.31-24.41Q644.93-24.41 645.56-24.34 646.19-24.27 646.7-23.97 647.2-23.68 647.51-23.07 647.83-22.46 647.83-21.39L647.83-21.39Q647.83-20.39 647.51-19.81 647.2-19.24 646.7-18.93 646.19-18.63 645.56-18.54 644.93-18.46 644.31-18.46L644.31-18.46 642.85-18.46 642.85-5.52Q642.85-4.44 642.74-3.45 642.63-2.47 642.23-1.7 641.82-0.93 641.06-0.46 640.29 0 638.99 0L638.99 0Q637.75 0 637.03-0.46 636.31-0.93 635.94-1.7 635.57-2.47 635.48-3.45 635.38-4.44 635.38-5.52L635.38-5.52 635.38-18.46 634.01-18.46Q633.33-18.46 632.71-18.54 632.08-18.63 631.61-18.93 631.13-19.24 630.84-19.81 630.55-20.39 630.55-21.39L630.55-21.39Q630.55-22.46 630.84-23.07 631.13-23.68 631.61-23.97 632.08-24.27 632.71-24.34 633.33-24.41 634.01-24.41L634.01-24.41 635.38-24.41Q635.38-26.56 635.57-28.37 635.77-30.18 636.53-31.46 637.28-32.74 638.77-33.46 640.26-34.18 642.85-34.18L642.85-34.18Q643.95-34.18 644.93-33.98 645.9-33.79 646.63-33.37 647.37-32.96 647.79-32.29 648.22-31.62 648.22-30.66L648.22-30.66Q648.22-29.79 647.92-29.2 647.61-28.61 647.17-28.25 646.73-27.88 646.21-27.73 645.68-27.59 645.24-27.59L645.24-27.59Q644.88-27.59 644.56-27.76 644.24-27.93 643.83-27.93L643.83-27.93Q643.48-27.93 643.3-27.71 643.12-27.49 643.01-27.12 642.9-26.76 642.87-26.32 642.85-25.88 642.85-25.44L642.85-25.44 642.85-24.41ZM650.76-9.18L650.76-15.23Q650.76-17.48 651.37-19.04 651.98-20.61 652.94-21.66 653.91-22.71 655.09-23.29 656.28-23.88 657.42-24.17 658.57-24.46 659.56-24.54 660.55-24.61 661.11-24.61L661.11-24.61Q661.67-24.61 662.65-24.54 663.62-24.46 664.73-24.17 665.85-23.88 666.98-23.29 668.12-22.71 669.03-21.66 669.95-20.61 670.53-19.04 671.12-17.48 671.12-15.23L671.12-15.23 671.12-9.18Q671.12-6.93 670.53-5.37 669.95-3.81 669.03-2.76 668.12-1.71 666.98-1.12 665.85-0.54 664.73-0.24 663.62 0.05 662.65 0.12 661.67 0.2 661.11 0.2L661.11 0.2Q660.55 0.2 659.56 0.12 658.57 0.05 657.42-0.24 656.28-0.54 655.09-1.12 653.91-1.71 652.94-2.76 651.98-3.81 651.37-5.37 650.76-6.93 650.76-9.18L650.76-9.18ZM658.28-16.31L658.28-7.47Q658.3-6.76 658.62-6.23L658.62-6.23Q658.89-5.74 659.46-5.36 660.03-4.98 661.11-4.98L661.11-4.98Q662.13-4.98 662.68-5.36 663.23-5.74 663.5-6.23L663.5-6.23Q663.79-6.76 663.84-7.47L663.84-7.47 663.84-16.31Q663.79-17.04 663.5-17.65L663.5-17.65Q663.23-18.14 662.68-18.57 662.13-18.99 661.11-18.99L661.11-18.99Q660.03-18.99 659.46-18.57 658.89-18.14 658.62-17.65L658.62-17.65Q658.3-17.04 658.28-16.31L658.28-16.31ZM691.82-20.75L691.82-20.75Q691.82-18.85 690.88-17.97 689.94-17.09 688.21-17.09L688.21-17.09Q687.96-17.09 687.51-17.05 687.06-17.02 686.55-16.86 686.03-16.7 685.51-16.39 684.98-16.09 684.54-15.56 684.1-15.04 683.84-14.23 683.57-13.43 683.57-12.3L683.57-12.3 683.57-5.32Q683.57-4.32 683.46-3.37 683.35-2.42 682.96-1.67 682.57-0.93 681.83-0.46 681.1 0 679.86 0L679.86 0Q678.64 0 677.93-0.46 677.22-0.93 676.84-1.67 676.46-2.42 676.35-3.37 676.24-4.32 676.24-5.32L676.24-5.32 676.24-18.99Q676.24-20.02 676.35-20.98 676.46-21.95 676.84-22.71 677.22-23.46 677.93-23.91 678.64-24.37 679.86-24.37L679.86-24.37Q681.1-24.37 681.77-23.82 682.44-23.27 682.76-22.4 683.08-21.53 683.13-20.47 683.18-19.41 683.18-18.41L683.18-18.41 683.57-18.41Q683.91-19.78 684.47-20.89 685.03-22 685.72-22.77 686.4-23.54 687.18-23.95 687.96-24.37 688.74-24.37L688.74-24.37Q689.7-24.37 690.29-24.16 690.89-23.95 691.23-23.51 691.58-23.07 691.7-22.39 691.82-21.7 691.82-20.75ZM727.8-14.01L727.8-5.52Q727.8-4.49 727.7-3.5 727.61-2.51 727.24-1.73 726.87-0.95 726.14-0.48 725.41 0 724.14 0L724.14 0Q722.84 0 722.11-0.48 721.38-0.95 721-1.73 720.62-2.51 720.53-3.5 720.43-4.49 720.43-5.52L720.43-5.52 720.43-14.01 713.15-27Q712.57-28.03 712.03-29.02 711.49-30 711.49-31.01L711.49-31.01Q711.49-31.67 711.87-32.34 712.25-33.01 713.25-33.59L713.25-33.59Q714.35-34.18 715.3-34.18L715.3-34.18Q716.03-34.18 716.63-33.85 717.23-33.52 717.72-32.98 718.21-32.45 718.6-31.77 718.99-31.1 719.3-30.42L719.3-30.42 723.75-21.09 724.53-21.09 728.97-30.42Q729.29-31.1 729.68-31.77 730.07-32.45 730.56-32.98 731.05-33.52 731.65-33.85 732.24-34.18 732.98-34.18L732.98-34.18Q733.49-34.18 733.98-34.03 734.47-33.89 735.03-33.59L735.03-33.59Q735.98-33.01 736.38-32.34 736.79-31.67 736.79-31.01L736.79-31.01Q736.79-30.57 736.39-29.58 736-28.59 735.13-27L735.13-27 727.8-14.01ZM738.15-9.18L738.15-15.23Q738.15-17.48 738.76-19.04 739.37-20.61 740.33-21.66 741.3-22.71 742.48-23.29 743.67-23.88 744.81-24.17 745.96-24.46 746.95-24.54 747.94-24.61 748.5-24.61L748.5-24.61Q749.06-24.61 750.04-24.54 751.02-24.46 752.13-24.17 753.24-23.88 754.37-23.29 755.51-22.71 756.42-21.66 757.34-20.61 757.93-19.04 758.51-17.48 758.51-15.23L758.51-15.23 758.51-9.18Q758.51-6.93 757.93-5.37 757.34-3.81 756.42-2.76 755.51-1.71 754.37-1.12 753.24-0.54 752.13-0.24 751.02 0.05 750.04 0.12 749.06 0.2 748.5 0.2L748.5 0.2Q747.94 0.2 746.95 0.12 745.96 0.05 744.81-0.24 743.67-0.54 742.48-1.12 741.3-1.71 740.33-2.76 739.37-3.81 738.76-5.37 738.15-6.93 738.15-9.18L738.15-9.18ZM745.67-16.31L745.67-7.47Q745.69-6.76 746.01-6.23L746.01-6.23Q746.28-5.74 746.85-5.36 747.43-4.98 748.5-4.98L748.5-4.98Q749.53-4.98 750.08-5.36 750.63-5.74 750.89-6.23L750.89-6.23Q751.19-6.76 751.24-7.47L751.24-7.47 751.24-16.31Q751.19-17.04 750.89-17.65L750.89-17.65Q750.63-18.14 750.08-18.57 749.53-18.99 748.5-18.99L748.5-18.99Q747.43-18.99 746.85-18.57 746.28-18.14 746.01-17.65L746.01-17.65Q745.69-17.04 745.67-16.31L745.67-16.31ZM763.29-8.69L763.29-18.85Q763.29-19.9 763.42-20.9 763.54-21.9 763.94-22.68 764.34-23.46 765.09-23.94 765.83-24.41 767.1-24.41L767.1-24.41Q768.35-24.41 769.08-23.94 769.81-23.46 770.2-22.68 770.59-21.9 770.7-20.9 770.81-19.9 770.81-18.85L770.81-18.85 770.81-9.33Q770.81-8.62 770.87-7.97 770.94-7.32 771.16-6.82 771.37-6.32 771.8-6.02 772.23-5.71 772.96-5.71L772.96-5.71Q773.94-5.71 774.56-6.37 775.18-7.03 775.54-8.18 775.89-9.33 776.01-10.88 776.14-12.43 776.14-14.21L776.14-14.21 776.14-18.85Q776.14-19.9 776.26-20.9 776.38-21.9 776.78-22.68 777.19-23.46 777.93-23.94 778.67-24.41 779.94-24.41L779.94-24.41Q781.19-24.41 781.92-23.94 782.65-23.46 783.04-22.68 783.44-21.9 783.55-20.9 783.66-19.9 783.66-18.85L783.66-18.85 783.66-5.52Q783.66-4.47 783.58-3.48 783.51-2.49 783.14-1.72 782.78-0.95 782.03-0.48 781.29 0 779.94 0L779.94 0Q778.6 0 777.84-0.45 777.09-0.9 776.71-1.54 776.33-2.17 776.23-2.88 776.14-3.59 776.14-4.1L776.14-4.1Q775.94-3.39 775.53-2.66 775.11-1.93 774.46-1.34 773.82-0.76 772.91-0.38 772.01 0 770.81 0L770.81 0Q769.47 0 768.13-0.44 766.79-0.88 765.71-1.9 764.64-2.93 763.97-4.59 763.29-6.25 763.29-8.69L763.29-8.69ZM805.48-20.75L805.48-20.75Q805.48-18.85 804.54-17.97 803.6-17.09 801.87-17.09L801.87-17.09Q801.62-17.09 801.17-17.05 800.72-17.02 800.21-16.86 799.69-16.7 799.17-16.39 798.64-16.09 798.2-15.56 797.76-15.04 797.5-14.23 797.23-13.43 797.23-12.3L797.23-12.3 797.23-5.32Q797.23-4.32 797.12-3.37 797.01-2.42 796.62-1.67 796.23-0.93 795.49-0.46 794.76 0 793.52 0L793.52 0Q792.3 0 791.59-0.46 790.88-0.93 790.5-1.67 790.12-2.42 790.01-3.37 789.9-4.32 789.9-5.32L789.9-5.32 789.9-18.99Q789.9-20.02 790.01-20.98 790.12-21.95 790.5-22.71 790.88-23.46 791.59-23.91 792.3-24.37 793.52-24.37L793.52-24.37Q794.76-24.37 795.43-23.82 796.1-23.27 796.42-22.4 796.74-21.53 796.79-20.47 796.84-19.41 796.84-18.41L796.84-18.41 797.23-18.41Q797.57-19.78 798.13-20.89 798.69-22 799.38-22.77 800.06-23.54 800.84-23.95 801.62-24.37 802.4-24.37L802.4-24.37Q803.35-24.37 803.95-24.16 804.55-23.95 804.89-23.51 805.23-23.07 805.36-22.39 805.48-21.7 805.48-20.75ZM829.06-5.62L829.06-28.56Q829.06-29.61 829.16-30.62 829.25-31.62 829.63-32.41 830.01-33.2 830.74-33.69 831.47-34.18 832.77-34.18L832.77-34.18Q834.04-34.18 834.78-33.69 835.53-33.2 835.91-32.41 836.28-31.62 836.38-30.62 836.48-29.61 836.48-28.56L836.48-28.56 836.48-20.9 843.17-20.9 843.17-28.56Q843.17-29.61 843.27-30.62 843.36-31.62 843.74-32.41 844.12-33.2 844.85-33.69 845.59-34.18 846.88-34.18L846.88-34.18Q848.15-34.18 848.89-33.69 849.64-33.2 850.02-32.41 850.4-31.62 850.49-30.62 850.59-29.61 850.59-28.56L850.59-28.56 850.59-5.62Q850.59-4.54 850.49-3.54 850.4-2.54 850.02-1.75 849.64-0.95 848.89-0.48 848.15 0 846.88 0L846.88 0Q845.59 0 844.85-0.48 844.12-0.95 843.74-1.75 843.36-2.54 843.27-3.54 843.17-4.54 843.17-5.62L843.17-5.62 843.17-13.72 836.48-13.72 836.48-5.62Q836.48-4.54 836.38-3.54 836.28-2.54 835.91-1.75 835.53-0.95 834.78-0.48 834.04 0 832.77 0L832.77 0Q831.47 0 830.74-0.48 830.01-0.95 829.63-1.75 829.25-2.54 829.16-3.54 829.06-4.54 829.06-5.62L829.06-5.62ZM855.86-9.18L855.86-15.23Q855.86-17.48 856.47-19.04 857.08-20.61 858.05-21.66 859.01-22.71 860.2-23.29 861.38-23.88 862.53-24.17 863.67-24.46 864.66-24.54 865.65-24.61 866.21-24.61L866.21-24.61Q866.78-24.61 867.75-24.54 868.73-24.46 869.84-24.17 870.95-23.88 872.09-23.29 873.22-22.71 874.14-21.66 875.05-20.61 875.64-19.04 876.22-17.48 876.22-15.23L876.22-15.23 876.22-9.18Q876.22-6.93 875.64-5.37 875.05-3.81 874.14-2.76 873.22-1.71 872.09-1.12 870.95-0.54 869.84-0.24 868.73 0.05 867.75 0.12 866.78 0.2 866.21 0.2L866.21 0.2Q865.65 0.2 864.66 0.12 863.67 0.05 862.53-0.24 861.38-0.54 860.2-1.12 859.01-1.71 858.05-2.76 857.08-3.81 856.47-5.37 855.86-6.93 855.86-9.18L855.86-9.18ZM863.38-16.31L863.38-7.47Q863.41-6.76 863.72-6.23L863.72-6.23Q863.99-5.74 864.57-5.36 865.14-4.98 866.21-4.98L866.21-4.98Q867.24-4.98 867.79-5.36 868.34-5.74 868.61-6.23L868.61-6.23Q868.9-6.76 868.95-7.47L868.95-7.47 868.95-16.31Q868.9-17.04 868.61-17.65L868.61-17.65Q868.34-18.14 867.79-18.57 867.24-18.99 866.21-18.99L866.21-18.99Q865.14-18.99 864.57-18.57 863.99-18.14 863.72-17.65L863.72-17.65Q863.41-17.04 863.38-16.31L863.38-16.31ZM897.85 0L897.85 0Q896.61 0 895.87-0.48 895.14-0.95 894.75-1.73 894.36-2.51 894.25-3.5 894.14-4.49 894.14-5.52L894.14-5.52 894.14-15.19Q894.14-15.84 894.08-16.48 894.02-17.11 893.8-17.6 893.58-18.09 893.15-18.4 892.72-18.7 891.99-18.7L891.99-18.7Q891.02-18.7 890.41-18.04 889.8-17.38 889.44-16.25 889.09-15.11 888.95-13.57 888.82-12.04 888.82-10.25L888.82-10.25 888.82-5.52Q888.82-4.49 888.71-3.5 888.6-2.51 888.22-1.73 887.84-0.95 887.11-0.48 886.38 0 885.11 0L885.11 0Q883.84 0 883.11-0.48 882.37-0.95 881.99-1.73 881.62-2.51 881.51-3.5 881.4-4.49 881.4-5.52L881.4-5.52 881.4-18.9Q881.4-19.92 881.48-20.91 881.57-21.9 881.93-22.68 882.3-23.46 883.04-23.94 883.79-24.41 885.11-24.41L885.11-24.41Q886.45-24.41 887.19-23.96 887.94-23.51 888.31-22.86 888.67-22.22 888.75-21.51 888.82-20.8 888.82-20.31L888.82-20.31Q889.04-21.02 889.51-21.75 889.99-22.49 890.72-23.07 891.46-23.66 892.41-24.04 893.36-24.41 894.53-24.41L894.53-24.41Q896.14-24.41 897.66-23.63 899.17-22.85 900.24-21.09L900.24-21.09Q900.61-21.92 901.32-22.55 902.03-23.17 902.93-23.58 903.83-24 904.86-24.21 905.88-24.41 906.88-24.41L906.88-24.41Q908.23-24.41 909.57-23.97 910.91-23.54 911.99-22.51 913.06-21.48 913.73-19.84 914.4-18.19 914.4-15.77L914.4-15.77 914.4-5.52Q914.4-4.49 914.28-3.5 914.16-2.51 913.77-1.73 913.38-0.95 912.63-0.48 911.89 0 910.64 0L910.64 0Q909.38 0 908.63-0.48 907.89-0.95 907.5-1.73 907.1-2.51 906.99-3.5 906.88-4.49 906.88-5.52L906.88-5.52 906.88-15.19Q906.88-15.84 906.81-16.48 906.74-17.11 906.52-17.6 906.3-18.09 905.86-18.4 905.42-18.7 904.69-18.7L904.69-18.7Q903.91-18.7 903.36-18.21 902.81-17.72 902.44-16.87 902.08-16.02 901.88-14.83 901.68-13.65 901.61-12.26L901.61-12.26 901.61-5.52Q901.61-4.49 901.5-3.5 901.39-2.51 901-1.73 900.61-0.95 899.87-0.48 899.12 0 897.85 0ZM940.13-15.43L940.13-13.92Q940.13-13.53 940.09-13 940.04-12.48 939.71-12 939.38-11.52 938.67-11.18 937.96-10.84 936.67-10.84L936.67-10.84 926.95-10.84 926.95-8.5Q926.95-7.91 927.1-7.28 927.24-6.64 927.6-6.1 927.95-5.57 928.54-5.22 929.12-4.88 929.98-4.88L929.98-4.88Q930.95-4.88 931.48-5.11 932-5.35 932.31-5.69 932.61-6.03 932.86-6.42 933.1-6.81 933.51-7.15 933.91-7.5 934.63-7.73 935.35-7.96 936.62-7.96L936.62-7.96Q937.23-7.96 937.8-7.86 938.38-7.76 938.82-7.5 939.26-7.23 939.52-6.75 939.79-6.27 939.79-5.52L939.79-5.52Q939.79-3.93 938.79-2.87 937.79-1.81 936.28-1.17 934.76-0.54 932.99-0.27 931.22 0 929.69 0L929.69 0Q927.66-0.02 925.83-0.51 924-1 922.59-2.08 921.19-3.15 920.36-4.88 919.53-6.62 919.53-9.13L919.53-9.13 919.53-14.84Q919.53-17.16 920.08-18.77 920.63-20.39 921.51-21.46 922.39-22.53 923.48-23.13 924.58-23.73 925.71-24.02 926.83-24.32 927.84-24.39 928.86-24.46 929.59-24.46L929.59-24.46Q932.05-24.46 933.8-24.02 935.54-23.58 936.72-22.88 937.89-22.17 938.57-21.24 939.26-20.31 939.6-19.32 939.94-18.33 940.04-17.32 940.13-16.31 940.13-15.43L940.13-15.43ZM926.95-16.21L926.95-14.5 933.05-14.5Q933.05-15.65 932.99-16.54 932.93-17.43 932.63-18.04 932.32-18.65 931.67-18.97 931.03-19.29 929.83-19.29L929.83-19.29Q928.83-19.29 928.26-18.97 927.68-18.65 927.39-18.18 927.1-17.7 927.02-17.16 926.95-16.63 926.95-16.21L926.95-16.21Z" opacity="1" transform="matrix(1,0,0,1,0,0)" fill="#ffffff" class="slogan-text-1" data-fill-palette-color="secondary" id="text-1"></path></svg></g></svg></g></svg></g></svg></g><g transform="matrix(1,0,0,1,403.7049264631142,0)"><svg viewBox="0 0 66.06894098649799 74.32755860981024" height="74.32755860981024" width="66.06894098649799"><g><svg xmlns="http://www.w3.org/2000/svg" xml:space="preserve" viewBox="10 5 80 90" x="0" y="0" height="74.32755860981024" width="66.06894098649799" class="icon-icon-0" data-fill-palette-color="accent" id="icon-0"><path d="M15 5v90h70V5z m62 80H23V13h54z" fill="#ffffff" data-fill-palette-color="accent"></path><path d="M90 91c0 2.2-1.8 4-4 4H14c-2.2 0-4-1.8-4-4v-2c0-2.2 1.8-4 4-4h72c2.2 0 4 1.8 4 4z" fill="#ffffff" data-fill-palette-color="accent"></path><path d="M10 90h80v5H10zM46 13h8v72h-8z" fill="#ffffff" data-fill-palette-color="accent"></path><path d="M46 13h8v72h-8z" fill="#ffffff" data-fill-palette-color="accent"></path><path d="M16 45h68v8H16zM74 20.464L69.536 16h-7.072L74 27.536zM43 20.464L38.536 16h-7.072L43 27.536zM43 60.464L38.536 56h-7.072L43 67.536zM74 60.464L69.536 56h-7.072L74 67.536z" fill="#ffffff" data-fill-palette-color="accent"></path></svg></g></svg></g></svg></g><defs></defs></svg><rect width="395.52" height="62.57912161217731" fill="none" stroke="none" visibility="hidden"></rect></g></svg></g></svg>